<?xml version="1.0" encoding="UTF-8" standalone="no"?>
<!-- Created with Inkscape (http://www.inkscape.org/) -->

<svg
   xmlns:dc="http://purl.org/dc/elements/1.1/"
   xmlns:cc="http://creativecommons.org/ns#"
   xmlns:rdf="http://www.w3.org/1999/02/22-rdf-syntax-ns#"
   xmlns:svg="http://www.w3.org/2000/svg"
   xmlns="http://www.w3.org/2000/svg"
   xmlns:sodipodi="http://sodipodi.sourceforge.net/DTD/sodipodi-0.dtd"
   xmlns:inkscape="http://www.inkscape.org/namespaces/inkscape"
   width="210mm"
   height="210mm"
   viewBox="0 0 210 210"
   version="1.1"
   id="svg8"
   inkscape:version="0.92.5 (2060ec1f9f, 2020-04-08)"
   sodipodi:docname="tx_hasenbalgadventcal_domain_model_door.svg">
  <defs
     id="defs2" />
  <sodipodi:namedview
     id="base"
     pagecolor="#ffffff"
     bordercolor="#666666"
     borderopacity="1.0"
     inkscape:pageopacity="0.0"
     inkscape:pageshadow="2"
     inkscape:zoom="1.4"
     inkscape:cx="811.64203"
     inkscape:cy="307.54736"
     inkscape:document-units="mm"
     inkscape:current-layer="layer1"
     showgrid="true"
     inkscape:window-width="3768"
     inkscape:window-height="2096"
     inkscape:window-x="72"
     inkscape:window-y="27"
     inkscape:window-maximized="1">
    <inkscape:grid
       type="axonomgrid"
       id="grid14"
       units="mm"
       empspacing="5" />
  </sodipodi:namedview>
  <metadata
     id="metadata5">
    <rdf:RDF>
      <cc:Work
         rdf:about="">
        <dc:format>image/svg+xml</dc:format>
        <dc:type
           rdf:resource="http://purl.org/dc/dcmitype/StillImage" />
        <dc:title></dc:title>
      </cc:Work>
    </rdf:RDF>
  </metadata>
  <g
     inkscape:label="Layer 1"
     inkscape:groupmode="layer"
     id="layer1"
     transform="translate(0,-87)">
    <g
       id="g4606"
       transform="translate(-4.330127,-2.5000003)">
      <g
         transform="translate(-69.314012,41.087438)"
         id="g27">
        <ellipse
           id="path10"
           cx="111.34771"
           cy="161.70421"
           rx="33.484634"
           ry="21.221283"
           style="stroke-width:0.37171179" />
        <ellipse
           style="stroke-width:0.37134352"
           ry="21.221283"
           rx="33.41832"
           cy="225.19713"
           cx="111.41404"
           id="ellipse16" />
        <rect
           id="rect18"
           width="66.856003"
           height="63.864365"
           x="77.974266"
           y="160.91257"
           style="stroke-width:0.37831452" />
        <path
           style="stroke-width:0.37137243"
           d="m 122.90353,95.943286 c 0,22.093014 -5.44227,40.002944 -12.15563,40.002954 -6.71338,0 -12.155647,-17.90993 -12.155647,-40.002954 0,-22.093028 12.155647,-40.002954 12.155647,-40.002954 0,0 -2.49082,40.686303 -0.29109,47.925418 2.19975,7.2391 12.44672,-18.968964 12.44672,-7.922464 z"
           id="path20"
           inkscape:connector-curvature="0"
           sodipodi:nodetypes="scscss" />
      </g>
    </g>
    <path
       style="fill:none;stroke:#000000;stroke-width:8.46500015;stroke-miterlimit:4;stroke-dasharray:none;stroke-opacity:1"
       d="m 122.27241,119.50001 h 41.24357 c 22.16,0 40,17.83999 40,39.99999 v 75.00002 c 0,22.15999 -17.84,39.99999 -40,39.99999 h -41.24357 c -22.16,0 -39.999995,-17.84 -39.999995,-39.99999 V 159.5 c 0,-22.16 17.839995,-39.99999 39.999995,-39.99999 z"
       id="rect3780" />
    <g
       aria-label="x"
       transform="matrix(2.4332604,0,0,2.4332604,-923.26344,-646.9846)"
       style="font-style:normal;font-variant:normal;font-weight:normal;font-stretch:normal;font-size:40px;line-height:1.25;font-family:'Arial Black';-inkscape-font-specification:'Arial Black, ';letter-spacing:0px;word-spacing:0px;fill:#000000;fill-opacity:1;stroke:none"
       id="flowRoot4646">
      <path
         d="m 426.11719,336.38074 h 9.43359 l 3.30078,5.78125 3.82813,-5.78125 h 8.76953 l -7.07031,9.88281 7.57812,10.85937 h -9.27734 l -3.82813,-6.67968 -4.51172,6.67968 h -8.61328 l 7.53906,-10.85937 z"
         style=""
         id="path4673" />
    </g>
  </g>
</svg>
