<?xml version="1.0" encoding="UTF-8" standalone="no"?>
<!-- Created with Inkscape (http://www.inkscape.org/) -->

<svg
   xmlns:dc="http://purl.org/dc/elements/1.1/"
   xmlns:cc="http://creativecommons.org/ns#"
   xmlns:rdf="http://www.w3.org/1999/02/22-rdf-syntax-ns#"
   xmlns:svg="http://www.w3.org/2000/svg"
   xmlns="http://www.w3.org/2000/svg"
   xmlns:sodipodi="http://sodipodi.sourceforge.net/DTD/sodipodi-0.dtd"
   xmlns:inkscape="http://www.inkscape.org/namespaces/inkscape"
   width="210mm"
   height="210mm"
   viewBox="0 0 210 210"
   version="1.1"
   id="svg8"
   inkscape:version="0.92.5 (2060ec1f9f, 2020-04-08)"
   sodipodi:docname="tx_hasenbalgadventcal_domain_model_calendar.svg">
  <defs
     id="defs2" />
  <sodipodi:namedview
     id="base"
     pagecolor="#ffffff"
     bordercolor="#666666"
     borderopacity="1.0"
     inkscape:pageopacity="0.0"
     inkscape:pageshadow="2"
     inkscape:zoom="1.4"
     inkscape:cx="811.64203"
     inkscape:cy="307.54736"
     inkscape:document-units="mm"
     inkscape:current-layer="layer1"
     showgrid="true"
     inkscape:window-width="3768"
     inkscape:window-height="2096"
     inkscape:window-x="72"
     inkscape:window-y="27"
     inkscape:window-maximized="1">
    <inkscape:grid
       type="axonomgrid"
       id="grid14"
       units="mm"
       empspacing="5" />
  </sodipodi:namedview>
  <metadata
     id="metadata5">
    <rdf:RDF>
      <cc:Work
         rdf:about="">
        <dc:format>image/svg+xml</dc:format>
        <dc:type
           rdf:resource="http://purl.org/dc/dcmitype/StillImage" />
        <dc:title></dc:title>
      </cc:Work>
    </rdf:RDF>
  </metadata>
  <g
     inkscape:label="Layer 1"
     inkscape:groupmode="layer"
     id="layer1"
     transform="translate(0,-87)">
    <g
       id="g4606"
       transform="translate(-4.330127,-2.5000003)">
      <g
         transform="translate(-69.314012,41.087438)"
         id="g27">
        <ellipse
           id="path10"
           cx="111.34771"
           cy="161.70421"
           rx="33.484634"
           ry="21.221283"
           style="stroke-width:0.37171179" />
        <ellipse
           style="stroke-width:0.37134352"
           ry="21.221283"
           rx="33.41832"
           cy="225.19713"
           cx="111.41404"
           id="ellipse16" />
        <rect
           id="rect18"
           width="66.856003"
           height="63.864365"
           x="77.974266"
           y="160.91257"
           style="stroke-width:0.37831452" />
        <path
           style="stroke-width:0.37137243"
           d="m 122.90353,95.943286 c 0,22.093014 -5.44227,40.002944 -12.15563,40.002954 -6.71338,0 -12.155647,-17.90993 -12.155647,-40.002954 0,-22.093028 12.155647,-40.002954 12.155647,-40.002954 0,0 -2.49082,40.686303 -0.29109,47.925418 2.19975,7.2391 12.44672,-18.968964 12.44672,-7.922464 z"
           id="path20"
           inkscape:connector-curvature="0"
           sodipodi:nodetypes="scscss" />
      </g>
    </g>
    <path
       style="fill:none;stroke:#000000;stroke-width:8.46500015;stroke-miterlimit:4;stroke-dasharray:none;stroke-opacity:1"
       d="m 122.27241,119.50001 h 41.24357 c 22.16,0 40,17.83999 40,39.99999 v 75.00002 c 0,22.15999 -17.84,39.99999 -40,39.99999 h -41.24357 c -22.16,0 -39.999995,-17.84 -39.999995,-39.99999 V 159.5 c 0,-22.16 17.839995,-39.99999 39.999995,-39.99999 z"
       id="rect3780" />
    <g
       aria-label="24"
       transform="matrix(1.7407991,0,0,1.7407991,-558.92622,-284.3916)"
       style="font-style:normal;font-variant:normal;font-weight:normal;font-stretch:normal;font-size:40px;line-height:1.25;font-family:'Arial Black';-inkscape-font-specification:'Arial Black, ';letter-spacing:0px;word-spacing:0px;fill:#000000;fill-opacity:1;stroke:none"
       id="flowRoot4587">
      <path
         d="m 401.33594,290.98035 h -23.86719 q 0.41016,-3.53516 2.48047,-6.64063 2.08984,-3.125 7.8125,-7.36328 3.49609,-2.59766 4.47265,-3.94531 0.97657,-1.34766 0.97657,-2.5586 0,-1.30859 -0.97657,-2.22656 -0.95703,-0.9375 -2.42187,-0.9375 -1.52344,0 -2.5,0.95703 -0.95703,0.95703 -1.28906,3.37891 l -7.96875,-0.64453 q 0.46875,-3.35938 1.71875,-5.23438 1.25,-1.89453 3.51562,-2.89062 2.28516,-1.01563 6.3086,-1.01563 4.19921,0 6.52343,0.95703 2.34375,0.95703 3.67188,2.94922 1.34765,1.97266 1.34765,4.4336 0,2.61718 -1.54296,5 -1.52344,2.38281 -5.56641,5.23437 -2.40234,1.66016 -3.22266,2.32422 -0.80078,0.66406 -1.89453,1.73828 h 12.42188 z"
         style=""
         id="path4595" />
      <path
         d="m 418.40625,285.62878 h -14.49219 v -6.54297 l 14.49219,-17.22656 h 6.93359 v 17.59766 h 3.59375 v 6.17187 h -3.59375 v 5.35157 h -6.93359 z m 0,-6.17187 V 270.453 l -7.65625,9.00391 z"
         style=""
         id="path4597" />
    </g>
  </g>
</svg>
